<svg xmlns="http://www.w3.org/2000/svg" xmlns:xlink="http://www.w3.org/1999/xlink" viewBox="0 0 200 200"><defs><clipPath id="clip-path"><rect x="46" y="23.35" width="108" height="114.65" fill="none"></rect></clipPath></defs><g id="Logo"><g id="IMU_logo-graphic" data-name="IMU logo-graphic"><g clip-path="url(#clip-path)"><g clip-path="url(#clip-path)"><path d="M154,31.87V105h-8V30L133.5,51.66l-6.93-4,11.57-20c4.35-7.53,15.86-4.44,15.86,4.25"></path><path d="M104,55H54v75h75l-4.62,8H56.5A10.5,10.5,0,0,1,46,127.5v-70A10.5,10.5,0,0,1,56.5,47H104Z"></path><rect x="87.5" y="78" width="8" height="29"></rect><rect x="79" y="88.5" width="25" height="8"></rect></g></g></g></g><g id="Typo"><path d="M37,163.85c.19,0,.26.06.26.26V172c0,.2-.07.26-.26.26h-.68c-.19,0-.26-.06-.26-.26v-7.87c0-.2.07-.26.26-.26Z"></path><path d="M40.07,164.07l3.34,4,3.3-4c.25-.27.33-.34.46-.34s.24.12.24.39V172c0,.2-.07.26-.27.26h-.67c-.19,0-.26-.06-.26-.26v-5.59l-2.4,3c-.2.28-.29.34-.42.34s-.22-.06-.42-.34l-2.4-3V172c0,.2-.07.26-.26.26h-.67c-.2,0-.27-.06-.27-.26v-7.86c0-.27.06-.39.24-.39S39.84,163.82,40.07,164.07Z"></path><path d="M50.4,163.85c.2,0,.28.06.28.26v4.52c0,1.64.79,2.6,2.23,2.6s2.28-1,2.28-2.59v-4.53c0-.2.07-.26.25-.26h.67c.2,0,.27.06.27.26v4.56c0,2.44-1.46,3.7-3.52,3.7s-3.38-1.18-3.38-3.67v-4.59c0-.2.07-.26.26-.26Z"></path><path d="M66.57,163.85c.2,0,.27.06.27.26v.61c0,.21-.07.27-.27.27H63.08c-.1,0-.14,0-.14.13v2.37c0,.1,0,.13.14.13h3.07c.21,0,.28.08.28.28v.6c0,.19-.07.26-.28.26H63.08c-.1,0-.14,0-.14.14V172c0,.2-.07.26-.26.26H62c-.19,0-.26-.06-.26-.26v-7.87c0-.2.07-.26.26-.26Z"></path><path d="M69.13,166.36c.2,0,.26.09.26.29v.43a1.93,1.93,0,0,1,1.73-.83h.11c.23,0,.29.07.29.29v.59c0,.23-.09.3-.29.3H71c-1,0-1.56.52-1.56,1.75V172c0,.15-.06.21-.2.21h-.74c-.16,0-.22-.06-.22-.21v-5.38c0-.23,0-.29.25-.29Z"></path><path d="M71.89,170.41a2,2,0,0,1,2.24-1.95,2.22,2.22,0,0,1,1.54.52c0-1.1-.59-1.69-1.6-1.69-.24,0-.64.05-.75.05s-.2-.06-.22-.22l-.07-.53v-.06c0-.13.07-.19.23-.22a5.33,5.33,0,0,1,.93-.09c1.78,0,2.64,1,2.64,2.89V172c0,.15-.06.21-.2.21h-.74c-.15,0-.22-.06-.22-.21v-.2a2.16,2.16,0,0,1-1.54.52A2,2,0,0,1,71.89,170.41Zm3.79,0a1.31,1.31,0,1,0-1.29,1.09A1.16,1.16,0,0,0,75.68,170.42Z"></path><path d="M79.55,166.36a.27.27,0,0,1,.31.3V167a2,2,0,0,1,3.44.34,2.16,2.16,0,0,1,1.93-1.13c1.39,0,2.15,1,2.15,2.75v3c0,.15-.06.21-.21.21h-.75c-.14,0-.22-.06-.22-.21v-2.94c0-1.14-.45-1.78-1.28-1.78s-1.31.64-1.31,1.78V172c0,.15-.06.21-.2.21h-.74c-.15,0-.22-.06-.22-.21v-2.94c0-1.14-.47-1.78-1.3-1.78s-1.29.64-1.29,1.78V172c0,.15-.06.21-.2.21h-.75c-.15,0-.21-.06-.21-.21v-5.37a.26.26,0,0,1,.3-.3Z"></path><path d="M94.16,171.65a3.75,3.75,0,0,1-2.3.72,3.08,3.08,0,0,1-.09-6.15,2.85,2.85,0,0,1,2.87,3v.21c0,.15-.06.21-.2.21H90a1.85,1.85,0,0,0,1.92,1.74,3,3,0,0,0,1.69-.54.37.37,0,0,1,.2-.07.18.18,0,0,1,.15.11l.27.44a.35.35,0,0,1,0,.17A.23.23,0,0,1,94.16,171.65Zm-4.1-3h3.35a1.65,1.65,0,0,0-1.65-1.5A1.72,1.72,0,0,0,90.06,168.7Z"></path><path d="M95.57,166.36h.71c.22,0,.28,0,.42.33l1.58,3.57,1.51-3.32c.13-.24.19-.34.34-.34s.22.1.33.34l1.52,3.32,1.56-3.57c.14-.28.18-.33.41-.33h.71c.14,0,.22,0,.22.15a.41.41,0,0,1,0,.18l-2.38,5.18c-.2.42-.28.53-.43.53s-.23-.11-.43-.53l-1.48-3.17-1.5,3.17c-.19.4-.28.53-.43.53s-.22-.11-.42-.53l-2.36-5.18a.59.59,0,0,1-.06-.18C95.34,166.41,95.41,166.36,95.57,166.36Z"></path><path d="M108.62,166.22a3.08,3.08,0,1,1-.05,6.15,3,3,0,0,1-3-3.07A3.06,3.06,0,0,1,108.62,166.22Zm0,1.1a2,2,0,0,0,0,4,1.93,1.93,0,0,0,1.91-2A1.91,1.91,0,0,0,108.61,167.32Z"></path><path d="M114.09,166.36c.21,0,.27.09.27.29v.43a1.92,1.92,0,0,1,1.73-.83h.1c.23,0,.29.07.29.29v.59c0,.23-.08.3-.29.3h-.27c-1,0-1.56.52-1.56,1.75V172c0,.15-.06.21-.2.21h-.75c-.15,0-.21-.06-.21-.21v-5.38c0-.23,0-.29.25-.29Z"></path><path d="M118.67,163.25c.19,0,.26.06.26.26V172c0,.2-.07.26-.26.26H118c-.19,0-.26-.06-.26-.26v-8.47c0-.2.07-.26.26-.26Zm.53,5.84,2.09-2.5a.56.56,0,0,1,.45-.23h.86c.12,0,.18,0,.18.11a.24.24,0,0,1-.08.18l-2.2,2.56L123,172a.3.3,0,0,1,.06.14c0,.06-.07.12-.18.12h-.91a.53.53,0,0,1-.46-.21l-2.27-2.59a.34.34,0,0,1-.09-.17A.34.34,0,0,1,119.2,169.09Z"></path><path d="M130.19,163.85c2.8,0,4.53,1.63,4.53,4.1s-1.81,4.29-4.7,4.29h-2.33c-.19,0-.26-.06-.26-.26v-7.87c0-.2.07-.26.26-.26Zm-.1,1.14h-1.32c-.11,0-.14,0-.14.13V171c0,.1,0,.13.14.13H130c2.17,0,3.43-1.18,3.43-3.1S132.21,165,130.09,165Z"></path><path d="M141.15,171.65a3.75,3.75,0,0,1-2.3.72,3.08,3.08,0,0,1-.08-6.15,2.85,2.85,0,0,1,2.86,3v.21c0,.15-.06.21-.2.21H137a1.85,1.85,0,0,0,1.92,1.74,3,3,0,0,0,1.69-.54.37.37,0,0,1,.2-.07.17.17,0,0,1,.15.11l.27.44a.35.35,0,0,1,0,.17A.23.23,0,0,1,141.15,171.65Zm-4.1-3h3.35a1.65,1.65,0,0,0-1.65-1.5A1.72,1.72,0,0,0,137.05,168.7Z"></path><path d="M143.28,170.83a3.18,3.18,0,0,0,1.71.57c.71,0,1.18-.29,1.18-.73s-.28-.58-1.4-.88c-1.32-.34-2-.82-2-1.83s.94-1.74,2.19-1.74a3.8,3.8,0,0,1,2.18.61.21.21,0,0,1,.11.16.56.56,0,0,1-.06.17l-.29.48a.15.15,0,0,1-.14.09.27.27,0,0,1-.16,0,3.28,3.28,0,0,0-1.62-.49c-.58,0-1,.27-1,.71s.42.68,1.39.92c1.44.36,2,.78,2,1.8s-.91,1.75-2.38,1.75a3.75,3.75,0,0,1-2.26-.68.23.23,0,0,1-.11-.17.39.39,0,0,1,.07-.17l.31-.48c0-.07.1-.1.14-.1A.29.29,0,0,1,143.28,170.83Z"></path><path d="M150.15,164.31a.72.72,0,0,1-.74.74.74.74,0,1,1,.74-.74Zm-.42,2.05c.2,0,.27.06.27.27V172c0,.2-.07.26-.27.26h-.63c-.19,0-.27-.06-.27-.26v-5.35c0-.21.08-.27.27-.27Z"></path><path d="M154.09,173.93a1.41,1.41,0,0,0,1.59-1.58c0-.07,0-.11-.08-.11h-.67c-2.21,0-3.44-1.09-3.44-2.9s1.22-3,3.44-3h1.67c.19,0,.26.06.26.27v5.53c0,1.87-1,2.84-2.76,2.84a4.26,4.26,0,0,1-1.43-.25.23.23,0,0,1-.15-.22.45.45,0,0,1,0-.11l.16-.49c0-.14.09-.2.2-.2A8.2,8.2,0,0,0,154.09,173.93Zm1.59-6.37c0-.09,0-.14-.13-.14h-.61c-1.35,0-2.25.66-2.25,1.92s.85,1.83,2.25,1.83h.61c.1,0,.13,0,.13-.14Z"></path><path d="M159.59,166.36a.27.27,0,0,1,.31.3V167a2,2,0,0,1,1.71-.79c1.53,0,2.33,1,2.33,2.75v3c0,.15-.06.21-.2.21H163c-.14,0-.21-.06-.21-.21v-2.94c0-1.14-.52-1.78-1.44-1.78s-1.44.64-1.44,1.78V172c0,.15-.06.21-.21.21H159c-.16,0-.22-.06-.22-.21v-5.37a.27.27,0,0,1,.3-.3Z"></path></g></svg>