<svg xmlns="http://www.w3.org/2000/svg" xmlns:xlink="http://www.w3.org/1999/xlink" viewBox="0 0 410 160"><defs><clipPath id="clip-path"><rect x="26" y="23.35" width="108" height="114.65" fill="none"></rect></clipPath></defs><g id="Logo"><g id="IMU_logo-graphic" data-name="IMU logo-graphic"><g clip-path="url(#clip-path)"><g clip-path="url(#clip-path)"><path d="M134,31.87V105h-8V30L113.5,51.66l-6.93-4,11.57-20c4.35-7.53,15.86-4.44,15.86,4.25"></path><path d="M84,55H34v75h75l-4.62,8H36.5A10.5,10.5,0,0,1,26,127.5v-70A10.5,10.5,0,0,1,36.5,47H84Z"></path><rect x="67.5" y="78" width="8" height="29"></rect><rect x="59" y="88.5" width="25" height="8"></rect></g></g></g></g><g id="Typo"><path d="M161.64,81.8c.33,0,.46.11.46.46V96c0,.36-.13.46-.46.46h-1.18c-.33,0-.46-.1-.46-.46V82.26c0-.35.13-.46.46-.46Z"></path><path d="M167,82.2l5.86,7,5.78-7c.44-.48.56-.61.79-.61s.42.21.42.7V96c0,.36-.12.46-.46.46h-1.17c-.34,0-.47-.1-.47-.46V86.25l-4.2,5.17c-.35.48-.5.59-.73.59s-.38-.11-.74-.59l-4.19-5.17V96c0,.36-.13.46-.47.46h-1.17c-.34,0-.46-.1-.46-.46V82.29c0-.49.1-.7.42-.7S166.62,81.76,167,82.2Z"></path><path d="M185.09,81.8c.36,0,.49.11.49.46v7.92c0,2.88,1.38,4.56,3.9,4.56s4-1.73,4-4.54V82.26c0-.35.13-.46.44-.46h1.18c.36,0,.48.11.48.46v8c0,4.29-2.56,6.49-6.17,6.49s-5.92-2.08-5.92-6.42v-8c0-.35.12-.46.46-.46Z"></path><path d="M213.4,81.8c.34,0,.46.11.46.46v1.08c0,.35-.12.46-.46.46h-6.11c-.19,0-.25.06-.25.23v4.16c0,.16.06.23.25.23h5.38c.35,0,.48.12.48.48v1c0,.34-.13.46-.48.46h-5.38c-.19,0-.25.06-.25.23V96c0,.36-.13.46-.46.46H205.4c-.33,0-.46-.1-.46-.46V82.26c0-.35.13-.46.46-.46Z"></path><path d="M217.88,86.21c.35,0,.46.15.46.51v.75a3.37,3.37,0,0,1,3-1.47h.19c.4,0,.5.13.5.53v1c0,.39-.14.52-.5.52h-.48c-1.83,0-2.73.9-2.73,3.07v5c0,.28-.11.38-.36.38h-1.3c-.27,0-.38-.1-.38-.38v-9.4c0-.4.08-.51.44-.51Z"></path><path d="M222.71,93.29c0-2.16,1.67-3.4,3.92-3.4a3.92,3.92,0,0,1,2.69.9c-.06-1.93-1-3-2.79-3-.42,0-1.14.08-1.33.08s-.35-.1-.37-.38l-.13-.92v-.1c0-.23.13-.34.4-.4a9.25,9.25,0,0,1,1.64-.15c3.1,0,4.62,1.81,4.62,5.06v5.1c0,.28-.11.38-.36.38h-1.3c-.25,0-.38-.1-.38-.38v-.33a3.79,3.79,0,0,1-2.69.9C224.36,96.69,222.71,95.45,222.71,93.29Zm6.63,0a2.06,2.06,0,0,0-2.27-2,2,2,0,1,0,2.27,2Z"></path><path d="M236.1,86.21c.36,0,.55.17.55.53v.65A3.35,3.35,0,0,1,239.46,86a3.29,3.29,0,0,1,3.21,2,3.78,3.78,0,0,1,3.38-2c2.44,0,3.76,1.72,3.76,4.83v5.29c0,.28-.1.38-.35.38h-1.33c-.25,0-.37-.1-.37-.38V91c0-2-.8-3.11-2.25-3.11S243.22,89,243.22,91v5.14c0,.28-.1.38-.36.38h-1.3c-.25,0-.38-.1-.38-.38V91c0-2-.81-3.11-2.26-3.11S236.65,89,236.65,91v5.14c0,.28-.11.38-.36.38H235c-.27,0-.38-.1-.38-.38V86.74a.46.46,0,0,1,.53-.53Z"></path><path d="M261.68,95.47a6.6,6.6,0,0,1-4,1.26A5.39,5.39,0,0,1,257.5,86a5,5,0,0,1,5,5.19v.35c0,.28-.11.38-.36.38h-7.72a3.22,3.22,0,0,0,3.35,3.05,5.25,5.25,0,0,0,3-1,.69.69,0,0,1,.34-.13.31.31,0,0,1,.27.19l.47.78a.55.55,0,0,1,.08.29A.42.42,0,0,1,261.68,95.47Zm-7.18-5.16h5.86a2.88,2.88,0,0,0-2.88-2.63A3,3,0,0,0,254.5,90.31Z"></path><path d="M264.14,86.21h1.24c.4,0,.5.09.73.57L268.88,93l2.65-5.82c.23-.42.33-.59.59-.59s.4.17.58.59L275.37,93l2.73-6.26c.23-.48.32-.57.71-.57h1.24c.25,0,.38.09.38.25a.63.63,0,0,1-.08.32l-4.16,9.07c-.36.73-.5.92-.76.92s-.39-.19-.75-.92l-2.58-5.54-2.63,5.54c-.34.69-.5.92-.76.92s-.39-.19-.73-.92l-4.14-9.07a1.08,1.08,0,0,1-.1-.32C263.74,86.3,263.87,86.21,264.14,86.21Z"></path><path d="M287,86a5.39,5.39,0,1,1-.08,10.77,5.27,5.27,0,0,1-5.33-5.37A5.35,5.35,0,0,1,287,86Zm0,1.93a3.46,3.46,0,0,0,0,6.91,3.39,3.39,0,0,0,3.36-3.44A3.35,3.35,0,0,0,287,87.89Z"></path><path d="M296.56,86.21c.36,0,.46.15.46.51v.75a3.38,3.38,0,0,1,3-1.47h.19c.39,0,.5.13.5.53v1c0,.39-.15.52-.5.52h-.49c-1.82,0-2.73.9-2.73,3.07v5c0,.28-.1.38-.35.38h-1.3c-.28,0-.38-.1-.38-.38v-9.4c0-.4.08-.51.44-.51Z"></path><path d="M304.56,80.75c.34,0,.46.11.46.47V96c0,.36-.12.46-.46.46h-1.11c-.34,0-.46-.1-.46-.46V81.22c0-.36.12-.47.46-.47ZM305.49,91l3.67-4.37a.94.94,0,0,1,.78-.4h1.51c.21,0,.31.07.31.19a.46.46,0,0,1-.14.32l-3.84,4.47,4.3,4.85a.58.58,0,0,1,.1.25c0,.11-.12.21-.31.21h-1.6a.88.88,0,0,1-.79-.38l-4-4.53a.56.56,0,0,1-.15-.3A.55.55,0,0,1,305.49,91Z"></path><path d="M324.72,81.8c4.91,0,7.94,2.86,7.94,7.18,0,4.56-3.17,7.52-8.23,7.52h-4.08c-.33,0-.46-.1-.46-.46V82.26c0-.35.13-.46.46-.46Zm-.17,2h-2.31c-.19,0-.25.06-.25.23V94.27c0,.17.06.24.25.24h2.23c3.8,0,6-2.08,6-5.44C330.47,85.9,328.27,83.8,324.55,83.8Z"></path><path d="M343.92,95.47a6.61,6.61,0,0,1-4,1.26A5.39,5.39,0,0,1,339.74,86a5,5,0,0,1,5,5.19v.35c0,.28-.1.38-.35.38h-7.73A3.23,3.23,0,0,0,340,94.93a5.25,5.25,0,0,0,3-1,.66.66,0,0,1,.34-.13.32.32,0,0,1,.27.19l.46.78a.57.57,0,0,1,.09.29A.45.45,0,0,1,343.92,95.47Zm-7.19-5.16h5.86a2.87,2.87,0,0,0-2.87-2.63A3,3,0,0,0,336.73,90.31Z"></path><path d="M347.63,94a5.48,5.48,0,0,0,3,1c1.24,0,2.06-.5,2.06-1.28s-.48-1-2.45-1.53c-2.31-.61-3.49-1.45-3.49-3.22,0-1.93,1.66-3,3.84-3A6.72,6.72,0,0,1,354.41,87a.33.33,0,0,1,.19.27,1,1,0,0,1-.1.3l-.51.84a.3.3,0,0,1-.25.17.54.54,0,0,1-.27-.09,5.82,5.82,0,0,0-2.84-.86c-1,0-1.8.46-1.8,1.24s.73,1.2,2.44,1.62c2.52.63,3.5,1.36,3.5,3.15,0,2-1.59,3.06-4.16,3.06a6.54,6.54,0,0,1-4-1.2.41.41,0,0,1-.19-.29.63.63,0,0,1,.12-.29l.55-.84c.08-.13.17-.19.25-.19A.58.58,0,0,1,347.63,94Z"></path><path d="M359.67,82.62a1.25,1.25,0,0,1-1.31,1.28,1.29,1.29,0,0,1,0-2.58A1.26,1.26,0,0,1,359.67,82.62Zm-.74,3.59c.34,0,.46.11.46.46V96c0,.36-.12.46-.46.46h-1.11c-.34,0-.46-.1-.46-.46V86.67c0-.35.12-.46.46-.46Z"></path><path d="M366.55,99.46a2.5,2.5,0,0,0,2.8-2.77c0-.13-.05-.19-.15-.19H368c-3.86,0-6-1.91-6-5.08s2.14-5.21,6-5.21h2.92c.34,0,.46.11.46.46v9.68c0,3.28-1.66,5-4.83,5a7.16,7.16,0,0,1-2.49-.44.41.41,0,0,1-.28-.38.62.62,0,0,1,0-.19l.28-.86c.06-.25.16-.36.35-.36A14.3,14.3,0,0,0,366.55,99.46Zm2.8-11.15a.22.22,0,0,0-.24-.25H368c-2.37,0-3.94,1.15-3.94,3.36s1.49,3.21,3.94,3.21h1.07c.17,0,.24-.06.24-.25Z"></path><path d="M376.17,86.21c.36,0,.55.17.55.53v.65a3.62,3.62,0,0,1,3-1.39c2.67,0,4.07,1.72,4.07,4.83v5.29c0,.28-.1.38-.35.38h-1.31c-.25,0-.37-.1-.37-.38V91c0-2-.91-3.11-2.52-3.11S376.72,89,376.72,91v5.14c0,.28-.11.38-.36.38h-1.3c-.27,0-.38-.1-.38-.38V86.74a.46.46,0,0,1,.53-.53Z"></path></g></svg>